#Comment line ignore any data following # character 
#Hierarchical Translation and Rotation (.htr) file 
[Header]	
#Header keywords are followed by a single value 
FileType HTR		#Single word string
DataType HTRS		#Translation followed by rotation and scale data
FileVersion 1		#integer
NumSegments 23		#integer
NumFrames 6		#integer
DataFrameRate 30		#integer, data frame rate in this file
EulerRotationOrder ZYX
CalibrationUnits mm
RotationUnits Degrees
GlobalAxisofGravity Y
BoneLengthAxis Y
ScaleFactor 1.00
[SegmentNames&Hierarchy]
#CHILD	PARENT
MASTER GLOBAL
weapon MASTER
arm_lock_bottom_part1 weapon
arm_lock_bottom_part2 weapon
arm_lock_bottom_part3 weapon
arm_lock_bottom_part4 weapon
arm_lock_top_part1 weapon
arm_lock_top_part2 weapon
arm_lock_top_part3 weapon
front_lower_left_part1 weapon
front_lower_right_part1 weapon
front_top_left_part weapon
front_top_right_part1 weapon
scope_part1 weapon
scope_part2 weapon
front_lower_left_part2 front_lower_left_part1
front_lower_left_part3 front_lower_left_part2
front_lower_right_part2 front_lower_right_part1
front_lower_right_part3 front_lower_right_part2
front_top_left_part2 front_top_left_part
front_top_left_part3 front_top_left_part2
front_top_right_part2 front_top_right_part1
front_top_right_part3 front_top_right_part2
[BasePosition]
#SegmentName Tx, Ty, Tz, Rx, Ry, Rz, BoneLength
MASTER 0.000000 0.000000 0.000000 -90.000000 0.000000 0.000000 10.000000 
weapon 0.000000 0.000000 0.000000 0.000000 0.000000 0.000000 10.000000 
arm_lock_bottom_part1 0.000000 0.000000 0.000000 0.000000 0.000000 0.000000 10.000000 
arm_lock_bottom_part2 0.000000 0.000000 0.000000 0.000000 0.000000 0.000000 10.000000 
arm_lock_bottom_part3 0.000000 0.000000 0.000000 0.000000 0.000000 0.000000 10.000000 
arm_lock_bottom_part4 0.000000 0.000000 0.000000 0.000000 0.000000 0.000000 10.000000 
arm_lock_top_part1 0.000000 0.000000 0.000000 0.000000 0.000000 0.000000 10.000000 
arm_lock_top_part2 0.000000 0.000000 0.000000 0.000000 0.000000 0.000000 10.000000 
arm_lock_top_part3 0.000000 0.000000 0.000000 0.000000 0.000000 0.000000 10.000000 
front_lower_left_part1 0.000000 0.000000 0.000000 0.000000 0.000000 0.000000 10.000000 
front_lower_right_part1 0.000000 0.000000 0.000000 0.000000 0.000000 0.000000 10.000000 
front_top_left_part 0.000000 0.000000 0.000000 0.000000 0.000000 0.000000 10.000000 
front_top_right_part1 0.000000 0.000000 0.000000 0.000000 0.000000 0.000000 10.000000 
scope_part1 0.000000 0.000000 0.000000 0.000000 0.000000 0.000000 10.000000 
scope_part2 0.000000 0.000000 0.000000 0.000000 0.000000 0.000000 10.000000 
front_lower_left_part2 0.000000 0.000000 0.000000 0.000000 0.000000 0.000000 10.000000 
front_lower_left_part3 0.000000 0.000000 0.000000 0.000000 0.000000 0.000000 10.000000 
front_lower_right_part2 0.000000 0.000000 0.000000 0.000000 0.000000 0.000000 10.000000 
front_lower_right_part3 0.000000 0.000000 0.000000 0.000000 0.000000 0.000000 10.000000 
front_top_left_part2 0.000000 0.000000 0.000000 0.000000 0.000000 0.000000 10.000000 
front_top_left_part3 0.000000 0.000000 0.000000 0.000000 0.000000 0.000000 10.000000 
front_top_right_part2 0.000000 0.000000 0.000000 0.000000 0.000000 0.000000 10.000000 
front_top_right_part3 0.000000 0.000000 0.000000 0.000000 0.000000 0.000000 10.000000 
#Beginning of Data. Separated by tabs
#Fr	Tx	Ty	Tz	Rx	Ry	Rz	SF
[MASTER]
50 0.000000 -0.000019 0.000002 0.002458 -0.000000 0.000000 0.000019
51 0.000000 -0.000019 0.000002 0.002458 -0.000000 0.000000 0.000019
52 0.000000 -0.000019 0.000002 0.002458 -0.000000 0.000000 0.000019
53 0.000000 -0.000019 0.000002 0.002458 -0.000000 0.000000 0.000019
54 0.000000 -0.000019 0.000002 0.002458 -0.000000 0.000000 0.000019
55 0.000000 -0.000019 0.000002 0.002458 -0.000000 0.000000 0.000019
[weapon]
50 10.182457 -168.977844 -13.084106 -0.002473 -0.000000 -0.000020 169.789246
51 10.182457 -168.977844 -13.084106 -0.002473 -0.000000 -0.000020 169.789246
52 10.182457 -168.977844 -13.084106 -0.002473 -0.000000 -0.000020 169.789246
53 10.182457 -168.977844 -13.084106 -0.002473 -0.000000 -0.000020 169.789246
54 10.182457 -168.977844 -13.084106 -0.002473 -0.000000 -0.000020 169.789246
55 10.182457 -168.977844 -13.084106 -0.002473 -0.000000 -0.000020 169.789246
[arm_lock_bottom_part1]
50 -48.820000 98.566208 -83.498993 179.999985 0.000004 9.388626 138.096970
51 -48.820000 98.566208 -83.498993 179.999985 0.000004 9.388626 138.096970
52 -48.820000 98.566208 -83.498993 179.999985 0.000004 9.388626 138.096970
53 -48.820000 98.566208 -83.498993 179.999985 0.000004 9.388626 138.096970
54 -48.820000 98.566208 -83.498993 179.999985 0.000004 9.388626 138.096970
55 -48.820000 98.566208 -83.498993 179.999985 0.000004 9.388626 138.096970
[arm_lock_bottom_part2]
50 -49.022766 58.782005 -78.526535 -179.999985 -0.000001 6.576765 109.658440
51 -49.022766 58.782005 -78.526535 -179.999985 -0.000001 6.576765 109.658440
52 -49.022766 58.782005 -78.526535 -179.999985 -0.000001 6.576765 109.658440
53 -49.022766 58.782005 -78.526535 -179.999985 -0.000001 6.576765 109.658440
54 -49.022766 58.782005 -78.526535 -179.999985 -0.000001 6.576765 109.658440
55 -49.022766 58.782005 -78.526535 -179.999985 -0.000001 6.576765 109.658440
[arm_lock_bottom_part3]
50 -51.266422 -16.798210 -66.920395 -179.999985 -0.000001 4.326176 85.957924
51 -51.266422 -16.798210 -66.920395 -179.999985 -0.000001 4.326176 85.957924
52 -51.266422 -16.798210 -66.920395 -179.999985 -0.000001 4.326176 85.957924
53 -51.266422 -16.798210 -66.920395 -179.999985 -0.000001 4.326176 85.957924
54 -51.266422 -16.798210 -66.920395 -179.999985 -0.000001 4.326176 85.957924
55 -51.266422 -16.798210 -66.920395 -179.999985 -0.000001 4.326176 85.957924
[arm_lock_bottom_part4]
50 -40.078102 -93.503113 -59.330063 -179.999985 -0.000000 1.322129 117.767326
51 -40.078102 -93.503113 -59.330063 -179.999985 -0.000000 1.322129 117.767326
52 -40.078102 -93.503113 -59.330063 -179.999985 -0.000000 1.322129 117.767326
53 -40.078102 -93.503113 -59.330063 -179.999985 -0.000000 1.322129 117.767326
54 -40.078102 -93.503113 -59.330063 -179.999985 -0.000000 1.322129 117.767326
55 -40.078102 -93.503113 -59.330063 -179.999985 -0.000000 1.322129 117.767326
[arm_lock_top_part1]
50 -47.532558 61.554489 78.379364 0.000000 -0.000000 -9.999999 110.415680
51 -47.532558 61.554489 78.379364 0.000000 -0.000000 -9.999999 110.415680
52 -47.532558 61.554489 78.379364 0.000000 -0.000000 -9.999999 110.415680
53 -47.532558 61.554489 78.379364 0.000000 -0.000000 -9.999999 110.415680
54 -47.532558 61.554489 78.379364 0.000000 -0.000000 -9.999999 110.415680
55 -47.532558 61.554489 78.379364 0.000000 -0.000000 -9.999999 110.415680
[arm_lock_top_part2]
50 -45.622673 13.709908 63.393555 0.000000 -0.000000 -7.722126 79.297745
51 -45.622673 13.709908 63.393555 0.000000 -0.000000 -7.722126 79.297745
52 -45.622673 13.709908 63.393555 0.000000 -0.000000 -7.722126 79.297745
53 -45.622673 13.709908 63.393555 0.000000 -0.000000 -7.722126 79.297745
54 -45.622673 13.709908 63.393555 0.000000 -0.000000 -7.722126 79.297745
55 -45.622673 13.709908 63.393555 0.000000 -0.000000 -7.722126 79.297745
[arm_lock_top_part3]
50 -43.788544 -73.747208 72.061615 0.000000 0.000000 -4.533067 112.022163
51 -43.788544 -73.747208 72.061615 0.000000 0.000000 -4.533067 112.022163
52 -43.788544 -73.747208 72.061615 0.000000 0.000000 -4.533067 112.022163
53 -43.788544 -73.747208 72.061615 0.000000 0.000000 -4.533067 112.022163
54 -43.788544 -73.747208 72.061615 0.000000 0.000000 -4.533067 112.022163
55 -43.788544 -73.747208 72.061615 0.000000 0.000000 -4.533067 112.022163
[front_lower_left_part1]
50 -46.798553 475.070984 -43.538895 0.000000 0.000003 -0.000000 479.351837
51 -46.798553 475.070984 -43.538895 0.000000 0.000003 -0.000000 479.351837
52 -46.798553 475.070984 -43.538895 0.000000 0.000003 -0.000000 479.351837
53 -46.798553 475.070984 -43.538895 0.000000 0.000003 -0.000000 479.351837
54 -46.798553 475.070984 -43.538895 0.000000 0.000003 -0.000000 479.351837
55 -46.798553 475.070984 -43.538895 0.000000 0.000003 -0.000000 479.351837
[front_lower_right_part1]
50 26.433468 475.070984 -43.538742 0.000000 -0.000000 -0.000000 477.793671
51 26.433468 475.070984 -43.538742 0.000000 -0.000000 -0.000000 477.793671
52 26.433468 475.070984 -43.538742 0.000000 -0.000000 -0.000000 477.793671
53 26.433468 475.070984 -43.538742 0.000000 -0.000000 -0.000000 477.793671
54 26.433468 475.070984 -43.538742 0.000000 -0.000000 -0.000000 477.793671
55 26.433468 475.070984 -43.538742 0.000000 -0.000000 -0.000000 477.793671
[front_top_left_part]
50 -47.897224 494.788910 7.030945 -0.000000 0.000003 -0.000001 497.151520
51 -47.897224 494.788910 7.030945 -0.000000 0.000003 -0.000001 497.151520
52 -47.897224 494.788910 7.030945 -0.000000 0.000003 -0.000001 497.151520
53 -47.897224 494.788910 7.030945 -0.000000 0.000003 -0.000001 497.151520
54 -47.897224 494.788910 7.030945 -0.000000 0.000003 -0.000001 497.151520
55 -47.897224 494.788910 7.030945 -0.000000 0.000003 -0.000001 497.151520
[front_top_right_part1]
50 27.532139 494.788910 7.031097 0.000000 -0.000000 -0.000000 495.604218
51 27.532139 494.788910 7.031097 0.000000 -0.000000 -0.000000 495.604218
52 27.532139 494.788910 7.031097 0.000000 -0.000000 -0.000000 495.604218
53 27.532139 494.788910 7.031097 0.000000 -0.000000 -0.000000 495.604218
54 27.532139 494.788910 7.031097 0.000000 -0.000000 -0.000000 495.604218
55 27.532139 494.788910 7.031097 0.000000 -0.000000 -0.000000 495.604218
[scope_part1]
50 -10.754299 87.338936 156.453094 -4.905728 -1.277337 0.109619 179.502960
51 -10.754299 87.338936 156.453094 -4.905656 -1.246121 0.107044 179.502960
52 -10.754299 87.338936 156.453094 -4.905580 -1.213519 0.104251 179.502960
53 -10.754299 87.338936 156.453094 -4.905502 -1.179538 0.101249 179.502960
54 -10.754299 87.338936 156.453094 -4.905425 -1.144241 0.098184 179.502960
55 -10.754299 87.338936 156.453094 -4.905424 -1.107865 0.095081 179.502960
[scope_part2]
50 -10.754299 82.597351 156.859894 -4.905518 1.187016 -0.101768 177.603500
51 -10.754299 82.597351 156.859894 -4.905455 1.158121 -0.099292 177.603500
52 -10.754299 82.597351 156.859894 -4.905390 1.127751 -0.096753 177.603500
53 -10.754299 82.597351 156.859894 -4.905324 1.096153 -0.094004 177.603500
54 -10.754299 82.597351 156.859894 -4.905334 1.063401 -0.091206 177.603500
55 -10.754299 82.597351 156.859894 -4.905268 1.029565 -0.088368 177.603500
[front_lower_left_part2]
50 -55.193516 141.618484 32.268444 0.000000 -0.000000 3.252761 155.381378
51 -55.193516 141.618484 32.268444 0.000000 -0.000000 3.290179 155.381378
52 -55.193516 141.618484 32.268444 0.000000 -0.000000 3.322335 155.381378
53 -55.193516 141.618484 32.268444 0.000000 -0.000000 3.349237 155.381378
54 -55.193516 141.618484 32.268444 0.000000 -0.000000 3.370577 155.381378
55 -55.193516 141.618484 32.268444 0.000000 -0.000000 3.386190 155.381378
[front_lower_left_part3]
50 -10.943755 108.509521 -11.125030 34.044964 -14.316468 -16.116982 109.625946
51 -10.943755 108.509445 -11.124725 34.040009 -14.329687 -16.096840 109.625839
52 -10.943775 108.509445 -11.124877 34.033096 -14.347780 -16.069109 109.625854
53 -10.943755 108.509521 -11.124725 34.024540 -14.370428 -16.034550 109.625916
54 -10.943755 108.509445 -11.124725 34.014320 -14.397373 -15.993401 109.625839
55 -10.943755 108.509369 -11.125030 34.001797 -14.430294 -15.942986 109.625801
[front_lower_right_part2]
50 55.193707 141.618347 32.268291 0.000000 0.000000 -1.547577 155.381271
51 55.193707 141.618347 32.268291 0.000000 0.000000 -1.565351 155.381271
52 55.193707 141.618347 32.268291 0.000000 0.000000 -1.580652 155.381271
53 55.193707 141.618347 32.268291 0.000000 0.000000 -1.593480 155.381271
54 55.193707 141.618347 32.268291 0.000000 0.000000 -1.603685 155.381271
55 55.193707 141.618347 32.268291 0.000000 0.000000 -1.611103 155.381271
[front_lower_right_part3]
50 10.943909 108.509445 -11.124725 33.685551 15.231194 14.707413 109.625854
51 10.943909 108.509369 -11.124877 33.680374 15.243847 14.687675 109.625793
52 10.943947 108.509369 -11.124725 33.674484 15.258141 14.665559 109.625786
53 10.943947 108.509445 -11.125030 33.668007 15.273852 14.641005 109.625893
54 10.943947 108.509369 -11.124725 33.660984 15.291067 14.614224 109.625786
55 10.943909 108.509369 -11.124725 33.653435 15.309505 14.585623 109.625778
[front_top_left_part2]
50 -38.544178 137.496490 54.618073 0.000000 -0.000003 0.000001 152.885818
51 -38.593578 137.496414 54.620819 0.000000 -0.000003 0.000001 152.899185
52 -38.652439 137.496262 54.624020 0.000000 -0.000003 0.000001 152.915070
53 -38.720242 137.496094 54.627834 0.000000 -0.000003 0.000001 152.933426
54 -38.796448 137.495956 54.631954 0.000000 -0.000003 0.000001 152.954086
55 -38.880524 137.495804 54.636536 0.000000 -0.000003 0.000001 152.976929
[front_top_left_part3]
50 -28.216476 149.657059 49.959717 -25.934181 -3.223516 -65.132477 160.279053
51 -28.216438 149.656906 49.959717 -25.932268 -3.240076 -65.166542 160.278915
52 -28.216438 149.656982 49.959717 -25.930267 -3.257396 -65.202339 160.278976
53 -28.216457 149.656982 49.959717 -25.928139 -3.275434 -65.239471 160.278992
54 -28.216476 149.656982 49.959717 -25.925938 -3.294145 -65.277992 160.278992
55 -28.216457 149.656906 49.959564 -25.923647 -3.313524 -65.317863 160.278870
[front_top_right_part2]
50 38.267670 137.478851 55.075684 0.000000 0.000000 -0.000020 152.964645
51 38.320461 137.478928 55.072784 0.000000 0.000000 -0.000020 152.976883
52 38.383404 137.479095 55.069275 0.000000 0.000000 -0.000020 152.991547
53 38.455853 137.479248 55.065308 0.000000 0.000000 -0.000020 153.008453
54 38.537292 137.479401 55.060883 0.000000 0.000000 -0.000020 153.027481
55 38.627171 137.479630 55.055847 0.000000 0.000000 -0.000020 153.048538
[front_top_right_part3]
50 28.216553 149.657135 49.959564 -25.900379 3.503444 65.709511 160.279099
51 28.216553 149.657059 49.959564 -25.899195 3.513113 65.729530 160.279022
52 28.216515 149.657059 49.959717 -25.897896 3.523276 65.750374 160.279068
53 28.216553 149.657059 49.959717 -25.896538 3.533856 65.772278 160.279083
54 28.216515 149.657135 49.959564 -25.895163 3.544879 65.794861 160.279083
55 28.216515 149.657135 49.959717 -25.893717 3.556173 65.818321 160.279129
